<svg width="20" height="20" viewBox="0 0 20 20" fill="none" xmlns="http://www.w3.org/2000/svg">
<g clip-path="url(#clip0_2435_131)">
<path d="M14.1667 8.33333C10.9508 8.33333 8.33333 10.9508 8.33333 14.1667C8.33333 17.3825 10.9508 20 14.1667 20C17.3825 20 20 17.3825 20 14.1667C20 10.9508 17.3825 8.33333 14.1667 8.33333ZM14.1667 18.3333C11.8692 18.3333 10 16.4642 10 14.1667C10 11.8692 11.8692 10 14.1667 10C16.4642 10 18.3333 11.8692 18.3333 14.1667C18.3333 16.4642 16.4642 18.3333 14.1667 18.3333ZM7.5 18.3333H3.33333C2.41417 18.3333 1.66667 17.5858 1.66667 16.6667C1.66667 15.7475 2.41417 15 3.33333 15H5.83333C6.29417 15 6.66667 14.6275 6.66667 14.1667C6.66667 13.7058 6.29417 13.3333 5.83333 13.3333H5V1.66667H12.5C13.8783 1.66667 15 2.78833 15 4.16667V5.83333C15 6.29417 15.3725 6.66667 15.8333 6.66667C16.2942 6.66667 16.6667 6.29417 16.6667 5.83333V4.16667C16.6667 1.86917 14.7975 0 12.5 0H4.16667C1.86917 0 0 1.86917 0 4.16667V16.6667C0 18.505 1.495 20 3.33333 20H7.5C7.96083 20 8.33333 19.6275 8.33333 19.1667C8.33333 18.7058 7.96083 18.3333 7.5 18.3333ZM1.66667 4.16667C1.66667 3.08167 2.36583 2.165 3.33333 1.82V13.3333C2.72333 13.3333 2.15917 13.51 1.66667 13.7967V4.16667Z" fill="#FF7730"/>
<path d="M16.8725 13.5892C17.1858 13.2642 17.1842 12.75 16.8692 12.4275L16.8683 12.4283C16.5408 12.0925 16 12.0942 15.6742 12.4317L13.8242 15.1L12.8758 14.1142C12.55 13.7692 12.0008 13.7667 11.6717 14.1092C11.3633 14.4292 11.3608 14.9358 11.6667 15.2583L12.6092 16.2375C13.265 16.9308 14.3667 16.9358 15.03 16.25L16.8725 13.5892Z" fill="#FF7730"/>
</g>
<defs>
<clipPath id="clip0_2435_131">
<rect width="20" height="20" fill="white"/>
</clipPath>
</defs>
</svg>
