<svg width="22" height="22" viewBox="0 0 22 22" fill="none" xmlns="http://www.w3.org/2000/svg">
<g clip-path="url(#clip0_2428_1473)">
<path d="M21.0833 3.66667H11.9167V1.83333H13.75C13.9931 1.83333 14.2263 1.73676 14.3982 1.56485C14.5701 1.39294 14.6667 1.15978 14.6667 0.916667C14.6667 0.673552 14.5701 0.440394 14.3982 0.268485C14.2263 0.0965771 13.9931 0 13.75 0L8.25 0C8.00688 0 7.77373 0.0965771 7.60182 0.268485C7.42991 0.440394 7.33333 0.673552 7.33333 0.916667C7.33333 1.15978 7.42991 1.39294 7.60182 1.56485C7.77373 1.73676 8.00688 1.83333 8.25 1.83333H10.0833V3.66667H0.916667C0.673552 3.66667 0.440394 3.76324 0.268485 3.93515C0.0965771 4.10706 0 4.34022 0 4.58333C0 4.82645 0.0965771 5.05961 0.268485 5.23151C0.440394 5.40342 0.673552 5.5 0.916667 5.5H1.83333V17.4167C1.83479 18.6318 2.31814 19.7967 3.17737 20.656C4.03659 21.5152 5.20154 21.9985 6.41667 22H15.5833C16.7985 21.9985 17.9634 21.5152 18.8226 20.656C19.6819 19.7967 20.1652 18.6318 20.1667 17.4167V5.5H21.0833C21.3264 5.5 21.5596 5.40342 21.7315 5.23151C21.9034 5.05961 22 4.82645 22 4.58333C22 4.34022 21.9034 4.10706 21.7315 3.93515C21.5596 3.76324 21.3264 3.66667 21.0833 3.66667ZM18.3333 17.4167C18.3333 18.146 18.0436 18.8455 17.5279 19.3612C17.0122 19.8769 16.3127 20.1667 15.5833 20.1667H6.41667C5.68732 20.1667 4.98785 19.8769 4.47212 19.3612C3.9564 18.8455 3.66667 18.146 3.66667 17.4167V5.5H18.3333V17.4167Z" fill="#383838"/>
</g>
<defs>
<clipPath id="clip0_2428_1473">
<rect width="22" height="22" fill="white"/>
</clipPath>
</defs>
</svg>
