<svg width="22" height="22" viewBox="0 0 22 22" fill="none" xmlns="http://www.w3.org/2000/svg">
<g clip-path="url(#clip0_2428_1467)">
<path d="M16.5 11.9167H9.16669C8.66069 11.9167 8.25002 11.5069 8.25002 11C8.25002 10.4931 8.66069 10.0834 9.16669 10.0834H16.5C17.0069 10.0834 17.4167 10.4931 17.4167 11C17.4167 11.5069 17.0069 11.9167 16.5 11.9167ZM11.9167 8.25002H16.5C17.0069 8.25002 17.4167 7.84027 17.4167 7.33336C17.4167 6.82644 17.0069 6.41669 16.5 6.41669H11.9167C11.4107 6.41669 11 6.82644 11 7.33336C11 7.84027 11.4107 8.25002 11.9167 8.25002ZM9.16669 13.75C8.66069 13.75 8.25002 14.1598 8.25002 14.6667C8.25002 15.1736 8.66069 15.5834 9.16669 15.5834H10.0834C10.5894 15.5834 11 15.1736 11 14.6667C11 14.1598 10.5894 13.75 10.0834 13.75H9.16669ZM4.12502 8.25002C2.86185 8.25002 1.83335 7.22244 1.83335 5.95836V5.34327C1.37044 5.18011 0.955187 4.89319 0.63252 4.50452C0.108187 3.87202 -0.10448 3.03969 0.0495201 2.22294C0.241103 1.20819 1.04502 0.351105 2.04969 0.0907721C2.7381 -0.0870612 3.43019 2.21034e-05 4.02969 0.327272C4.95369 -0.102645 6.04635 -0.102645 6.97035 0.326355C7.56985 2.21034e-05 8.26285 -0.0898112 8.94944 0.0907721C9.9541 0.351105 10.7589 1.20911 10.9496 2.22294C11.1036 3.04061 10.8919 3.87202 10.3666 4.50452C10.0439 4.89319 9.62869 5.18011 9.16577 5.34327V5.95836C9.16577 7.22244 8.13727 8.25002 6.8741 8.25002H4.12502ZM4.12502 6.41669H6.87502C7.12802 6.41669 7.33335 6.21044 7.33335 5.95836V4.58336C7.33335 4.07644 7.74402 3.66669 8.25002 3.66669C8.52319 3.66669 8.78077 3.54569 8.95677 3.33486C9.05944 3.21019 9.22169 2.94527 9.14927 2.56302C9.08785 2.23761 8.81652 1.94977 8.48927 1.86452C8.09602 1.76369 7.81277 1.92869 7.6441 2.08544C7.32419 2.38152 6.84019 2.41086 6.48727 2.15877C5.89235 1.73252 5.10952 1.73252 4.5146 2.15877C4.16169 2.41086 3.67585 2.38152 3.35777 2.08544C3.22485 1.96169 3.02135 1.83336 2.7491 1.83336C2.67485 1.83336 2.59602 1.84344 2.51169 1.86452C2.18535 1.94977 1.91402 2.23669 1.85169 2.56302C1.78019 2.94527 1.94152 3.21019 2.04419 3.33486C2.21927 3.54569 2.47685 3.66669 2.75094 3.66669C3.25694 3.66669 3.6676 4.07644 3.6676 4.58336V5.95836C3.6676 6.21044 3.87202 6.41669 4.12502 6.41669ZM22 4.58336V12.3888C22 14.1029 21.3318 15.7144 20.1199 16.9263L16.9263 20.1199C15.7144 21.3318 14.1029 22 12.3888 22H8.25002C5.72277 22 3.66669 19.9439 3.66669 17.4167V11C3.66669 10.4931 4.07735 10.0834 4.58335 10.0834C5.08935 10.0834 5.50002 10.4931 5.50002 11V17.4167C5.50002 18.9329 6.73385 20.1667 8.25002 20.1667H12.3888C12.54 20.1667 12.6849 20.1374 12.8334 20.1236V15.5834C12.8334 14.0672 14.0672 12.8334 15.5834 12.8334H20.1236C20.1383 12.6849 20.1667 12.54 20.1667 12.3888V4.58336C20.1667 3.06719 18.9329 1.83336 17.4167 1.83336H13.75C13.2431 1.83336 12.8334 1.42361 12.8334 0.916689C12.8334 0.409772 13.2431 2.21136e-05 13.75 2.21136e-05H17.4167C19.9439 2.21136e-05 22 2.05611 22 4.58336ZM18.8238 15.6301C19.1125 15.3414 19.3408 15.0114 19.5397 14.6667H15.5834C15.0774 14.6667 14.6667 15.0774 14.6667 15.5834V19.5397C15.0114 19.3408 15.3414 19.1125 15.6301 18.8238L18.8238 15.6301Z" fill="#383838"/>
</g>
<defs>
<clipPath id="clip0_2428_1467">
<rect width="22" height="22" fill="white"/>
</clipPath>
</defs>
</svg>
